<svg xmlns="http://www.w3.org/2000/svg" width="24" height="24" viewBox="0 0 24 24" fill="none" stroke="currentColor" stroke-width="2" stroke-linecap="round" stroke-linejoin="round">
    <circle cx="12" cy="12" r="10" fill="#eeeeee"/>
    <path d="M12 2C6.48 2 2 6.48 2 12s4.48 10 10 10 10-4.48 10-10S17.52 2 12 2zM7 12c0-2.76 2.24-5 5-5s5 2.24 5 5c0 1.66-1.34 3-3 3s-3 1.34-3 3 1.34 3 3 3c1.66 0 3-1.34 3-3"/>
    <circle cx="12" cy="12" r="3"/>
    <path d="M8 19c0 .552.448 1 1 1s1-.448 1-1-.448-1-1-1-1 .448-1 1zM14 19c0 .552.448 1 1 1s1-.448 1-1-.448-1-1-1-1 .448-1 1z"/>
</svg>
